<?xml version="1.0" standalone="no"?>
<svg xmlns:xlink="http://www.w3.org/1999/xlink" id="wave" style="transform:rotate(0deg); transition: 0.3s" viewBox="0 0 1440 490" version="1.1" xmlns="http://www.w3.org/2000/svg"><defs><linearGradient id="sw-gradient-0" x1="0" x2="0" y1="1" y2="0"><stop stop-color="rgba(254, 216, 29, 1)" offset="0%"/><stop stop-color="rgba(254, 216, 29, 1)" offset="100%"/></linearGradient></defs><path style="transform:translate(0, 0px); opacity:1" fill="url(#sw-gradient-0)" d="M0,245L60,204.2C120,163,240,82,360,106.2C480,131,600,261,720,285.8C840,310,960,229,1080,171.5C1200,114,1320,82,1440,106.2C1560,131,1680,212,1800,236.8C1920,261,2040,229,2160,179.7C2280,131,2400,65,2520,98C2640,131,2760,261,2880,294C3000,327,3120,261,3240,228.7C3360,196,3480,196,3600,163.3C3720,131,3840,65,3960,32.7C4080,0,4200,0,4320,57.2C4440,114,4560,229,4680,245C4800,261,4920,180,5040,130.7C5160,82,5280,65,5400,98C5520,131,5640,212,5760,253.2C5880,294,6000,294,6120,261.3C6240,229,6360,163,6480,122.5C6600,82,6720,65,6840,73.5C6960,82,7080,114,7200,147C7320,180,7440,212,7560,253.2C7680,294,7800,343,7920,302.2C8040,261,8160,131,8280,130.7C8400,131,8520,261,8580,326.7L8640,392L8640,490L8580,490C8520,490,8400,490,8280,490C8160,490,8040,490,7920,490C7800,490,7680,490,7560,490C7440,490,7320,490,7200,490C7080,490,6960,490,6840,490C6720,490,6600,490,6480,490C6360,490,6240,490,6120,490C6000,490,5880,490,5760,490C5640,490,5520,490,5400,490C5280,490,5160,490,5040,490C4920,490,4800,490,4680,490C4560,490,4440,490,4320,490C4200,490,4080,490,3960,490C3840,490,3720,490,3600,490C3480,490,3360,490,3240,490C3120,490,3000,490,2880,490C2760,490,2640,490,2520,490C2400,490,2280,490,2160,490C2040,490,1920,490,1800,490C1680,490,1560,490,1440,490C1320,490,1200,490,1080,490C960,490,840,490,720,490C600,490,480,490,360,490C240,490,120,490,60,490L0,490Z"/><defs><linearGradient id="sw-gradient-1" x1="0" x2="0" y1="1" y2="0"><stop stop-color="rgba(255, 224, 92, 1)" offset="0%"/><stop stop-color="rgba(255, 224, 92, 1)" offset="100%"/></linearGradient></defs><path style="transform:translate(0, 50px); opacity:0.9" fill="url(#sw-gradient-1)" d="M0,343L60,326.7C120,310,240,278,360,220.5C480,163,600,82,720,98C840,114,960,229,1080,253.2C1200,278,1320,212,1440,155.2C1560,98,1680,49,1800,89.8C1920,131,2040,261,2160,277.7C2280,294,2400,196,2520,187.8C2640,180,2760,261,2880,261.3C3000,261,3120,180,3240,138.8C3360,98,3480,98,3600,147C3720,196,3840,294,3960,285.8C4080,278,4200,163,4320,106.2C4440,49,4560,49,4680,106.2C4800,163,4920,278,5040,269.5C5160,261,5280,131,5400,98C5520,65,5640,131,5760,130.7C5880,131,6000,65,6120,73.5C6240,82,6360,163,6480,179.7C6600,196,6720,147,6840,138.8C6960,131,7080,163,7200,179.7C7320,196,7440,196,7560,187.8C7680,180,7800,163,7920,155.2C8040,147,8160,147,8280,171.5C8400,196,8520,245,8580,269.5L8640,294L8640,490L8580,490C8520,490,8400,490,8280,490C8160,490,8040,490,7920,490C7800,490,7680,490,7560,490C7440,490,7320,490,7200,490C7080,490,6960,490,6840,490C6720,490,6600,490,6480,490C6360,490,6240,490,6120,490C6000,490,5880,490,5760,490C5640,490,5520,490,5400,490C5280,490,5160,490,5040,490C4920,490,4800,490,4680,490C4560,490,4440,490,4320,490C4200,490,4080,490,3960,490C3840,490,3720,490,3600,490C3480,490,3360,490,3240,490C3120,490,3000,490,2880,490C2760,490,2640,490,2520,490C2400,490,2280,490,2160,490C2040,490,1920,490,1800,490C1680,490,1560,490,1440,490C1320,490,1200,490,1080,490C960,490,840,490,720,490C600,490,480,490,360,490C240,490,120,490,60,490L0,490Z"/></svg>